<svg xmlns="http://www.w3.org/2000/svg" xmlns:xlink="http://www.w3.org/1999/xlink" viewBox="0 0 1200 720" role="img" aria-label="Computed preview of Budyko–Sellers Climate"><defs><radialGradient id="ground"><stop stop-color="#183047"/><stop offset="1" stop-color="#060d16"/></radialGradient><linearGradient id="trace" x1="0" y1="0" x2="1" y2="1"><stop stop-color="#a9e6a2" stop-opacity=".36"/><stop offset=".55" stop-color="#e1fbff"/><stop offset="1" stop-color="#a9e6a2" stop-opacity=".55"/></linearGradient><filter id="glow" x="-40%" y="-40%" width="180%" height="180%"><feGaussianBlur stdDeviation="6"/></filter></defs><rect width="1200" height="720" fill="url(#ground)"/><circle cx="1050" cy="100" r="260" fill="#a9e6a2" fill-opacity=".055"/><g stroke="#b7e7f0" stroke-opacity=".075" stroke-width="1"><path d="M100 110H1100M100 211H1100M100 313H1100M100 414H1100M100 515H1100"/><path d="M100 110V515M350 110V515M600 110V515M850 110V515M1100 110V515"/></g><rect x="34" y="34" width="1132" height="652" rx="15" fill="none" stroke="#d2f4fa" stroke-opacity=".16"/><rect x="54" y="54" width="1092" height="612" rx="10" fill="none" stroke="#a9e6a2" stroke-opacity=".27"/><rect x="582.00" y="110.00" width="36.00" height="8.94" fill="rgb(52,52,115)"/><rect x="582.00" y="118.44" width="36.00" height="8.94" fill="rgb(56,55,122)"/><rect x="582.00" y="126.88" width="36.00" height="8.94" fill="rgb(69,71,134)"/><rect x="582.00" y="135.31" width="36.00" height="8.94" fill="rgb(82,88,145)"/><rect x="582.00" y="143.75" width="36.00" height="8.94" fill="rgb(94,103,156)"/><rect x="582.00" y="152.19" width="36.00" height="8.94" fill="rgb(104,116,165)"/><rect x="582.00" y="160.63" width="36.00" height="8.94" fill="rgb(113,127,173)"/><rect x="582.00" y="169.06" width="36.00" height="8.94" fill="rgb(121,137,180)"/><rect x="582.00" y="177.50" width="36.00" height="8.94" fill="rgb(128,147,186)"/><rect x="582.00" y="185.94" width="36.00" height="8.94" fill="rgb(135,155,192)"/><rect x="582.00" y="194.38" width="36.00" height="8.94" fill="rgb(141,163,198)"/><rect x="582.00" y="202.81" width="36.00" height="8.94" fill="rgb(146,169,203)"/><rect x="582.00" y="211.25" width="36.00" height="8.94" fill="rgb(151,176,207)"/><rect x="582.00" y="219.69" width="36.00" height="8.94" fill="rgb(156,181,211)"/><rect x="582.00" y="228.13" width="36.00" height="8.94" fill="rgb(160,187,215)"/><rect x="582.00" y="236.56" width="36.00" height="8.94" fill="rgb(163,191,218)"/><rect x="582.00" y="245.00" width="36.00" height="8.94" fill="rgb(167,195,221)"/><rect x="582.00" y="253.44" width="36.00" height="8.94" fill="rgb(169,199,223)"/><rect x="582.00" y="261.88" width="36.00" height="8.94" fill="rgb(172,202,225)"/><rect x="582.00" y="270.31" width="36.00" height="8.94" fill="rgb(174,204,227)"/><rect x="582.00" y="278.75" width="36.00" height="8.94" fill="rgb(175,206,228)"/><rect x="582.00" y="287.19" width="36.00" height="8.94" fill="rgb(176,208,229)"/><rect x="582.00" y="295.63" width="36.00" height="8.94" fill="rgb(177,209,230)"/><rect x="582.00" y="304.06" width="36.00" height="8.94" fill="rgb(178,209,230)"/><rect x="582.00" y="312.50" width="36.00" height="8.94" fill="rgb(178,209,230)"/><rect x="582.00" y="320.94" width="36.00" height="8.94" fill="rgb(177,209,230)"/><rect x="582.00" y="329.38" width="36.00" height="8.94" fill="rgb(176,208,229)"/><rect x="582.00" y="337.81" width="36.00" height="8.94" fill="rgb(175,206,228)"/><rect x="582.00" y="346.25" width="36.00" height="8.94" fill="rgb(174,204,227)"/><rect x="582.00" y="354.69" width="36.00" height="8.94" fill="rgb(172,202,225)"/><rect x="582.00" y="363.13" width="36.00" height="8.94" fill="rgb(169,199,223)"/><rect x="582.00" y="371.56" width="36.00" height="8.94" fill="rgb(167,195,221)"/><rect x="582.00" y="380.00" width="36.00" height="8.94" fill="rgb(163,191,218)"/><rect x="582.00" y="388.44" width="36.00" height="8.94" fill="rgb(160,187,215)"/><rect x="582.00" y="396.88" width="36.00" height="8.94" fill="rgb(156,181,211)"/><rect x="582.00" y="405.31" width="36.00" height="8.94" fill="rgb(151,176,207)"/><rect x="582.00" y="413.75" width="36.00" height="8.94" fill="rgb(146,169,203)"/><rect x="582.00" y="422.19" width="36.00" height="8.94" fill="rgb(141,163,198)"/><rect x="582.00" y="430.63" width="36.00" height="8.94" fill="rgb(135,155,192)"/><rect x="582.00" y="439.06" width="36.00" height="8.94" fill="rgb(128,147,186)"/><rect x="582.00" y="447.50" width="36.00" height="8.94" fill="rgb(121,137,180)"/><rect x="582.00" y="455.94" width="36.00" height="8.94" fill="rgb(113,127,173)"/><rect x="582.00" y="464.38" width="36.00" height="8.94" fill="rgb(104,116,165)"/><rect x="582.00" y="472.81" width="36.00" height="8.94" fill="rgb(94,103,156)"/><rect x="582.00" y="481.25" width="36.00" height="8.94" fill="rgb(82,88,145)"/><rect x="582.00" y="489.69" width="36.00" height="8.94" fill="rgb(69,71,134)"/><rect x="582.00" y="498.13" width="36.00" height="8.94" fill="rgb(56,55,122)"/><rect x="582.00" y="506.56" width="36.00" height="8.94" fill="rgb(52,52,115)"/><path d="M72 573H1128" stroke="#b6e5ed" stroke-opacity=".2"/><circle cx="82" cy="617" r="4" fill="#a9e6a2"/><text x="99" y="622" class="eyebrow">DYNAMUSIUM · EARTH CLIMATE</text><text x="72" y="662" class="title">Budyko–Sellers Climate</text><text x="1126" y="621" text-anchor="end" class="note">MODEL-DERIVED STUDY · 1969</text><text x="1126" y="656" text-anchor="end" class="subtitle">An ice line with a memory</text><style>.eyebrow{font:600 13px Inter,Arial,sans-serif;letter-spacing:2.2px;fill:#bdd6df}.title{font:500 28px 'Space Grotesk',Inter,Arial,sans-serif;fill:#eff9fb}.subtitle{font:400 13px Inter,Arial,sans-serif;fill:#a4bdc7}.note{font:500 10px 'JetBrains Mono',monospace;letter-spacing:1px;fill:#89a8b5}.metric{font:500 17px 'JetBrains Mono',monospace;fill:#dff4f8}</style></svg>