<svg xmlns="http://www.w3.org/2000/svg" xmlns:xlink="http://www.w3.org/1999/xlink" viewBox="0 0 1200 720" role="img" aria-label="Computed preview of N-Body System"><defs><radialGradient id="ground"><stop stop-color="#183047"/><stop offset="1" stop-color="#060d16"/></radialGradient><linearGradient id="trace" x1="0" y1="0" x2="1" y2="1"><stop stop-color="#ffd27d" stop-opacity=".36"/><stop offset=".55" stop-color="#e1fbff"/><stop offset="1" stop-color="#ffd27d" stop-opacity=".55"/></linearGradient><filter id="glow" x="-40%" y="-40%" width="180%" height="180%"><feGaussianBlur stdDeviation="6"/></filter></defs><rect width="1200" height="720" fill="url(#ground)"/><circle cx="1050" cy="100" r="260" fill="#ffd27d" fill-opacity=".055"/><g stroke="#b7e7f0" stroke-opacity=".075" stroke-width="1"><path d="M100 110H1100M100 211H1100M100 313H1100M100 414H1100M100 515H1100"/><path d="M100 110V515M350 110V515M600 110V515M850 110V515M1100 110V515"/></g><rect x="34" y="34" width="1132" height="652" rx="15" fill="none" stroke="#d2f4fa" stroke-opacity=".16"/><rect x="54" y="54" width="1092" height="612" rx="10" fill="none" stroke="#ffd27d" stroke-opacity=".27"/><rect x="397.50" y="110.00" width="405.00" height="405.00" fill="#081522" fill-opacity=".24" stroke="#b6eafa" stroke-opacity=".12"/><path d="M559.50,312.50L559.51,311.39L559.54,310.26L559.60,309.13L559.68,307.98L559.78,306.82L559.91,305.65L560.06,304.47L560.24,303.27L560.44,302.06L560.68,300.84L560.94,299.59L561.24,298.33L561.57,297.05L561.93,295.75L562.34,294.43L562.79,293.08L563.29,291.70L563.84,290.28L564.47,288.82L565.17,287.31L565.98,285.72L566.95,284.05L568.15,282.25L569.77,280.32L571.79,278.54L573.61,277.21L575.17,276.13L576.54,275.19L577.79,274.33L578.95,273.52L580.04,272.77L581.07,272.05L582.05,271.37L582.99,270.71L583.89,270.08L584.76,269.47L585.61,268.88L586.43,268.32L587.24,267.77L588.02,267.24L588.78,266.72L589.52,266.22L590.25,265.74L590.97,265.27L591.67,264.82L592.35,264.37L593.03,263.95L593.69,263.53L594.34,263.13L594.98,262.75L595.61,262.37L596.23,262.01L596.84,261.65L597.43,261.31L598.02,260.99L598.60,260.67L599.17,260.36L599.73,260.07L600.29,259.78L600.83,259.51L601.37,259.24L601.90,258.99L602.42,258.74L602.93,258.51L603.43,258.29L603.93,258.07L604.41,257.87L604.89,257.67L605.36,257.48L605.83,257.31L606.29,257.14L606.73,256.98L607.18,256.83L607.61,256.68L608.04,256.55L608.46,256.42L608.87,256.31L609.27,256.20L609.67,256.10L610.06,256.00L610.44,255.92L610.81,255.84L611.18,255.77L611.54,255.71L611.89,255.66L612.23,255.61L612.57,255.57L612.90,255.54L613.22,255.51L613.54,255.50L613.84,255.49L614.14,255.48L614.44,255.49L614.72,255.50L615.00,255.51L615.27,255.54L615.53,255.57L615.78,255.61L616.03,255.65L616.27,255.70L616.50,255.76L616.73,255.82L616.94,255.89L617.15,255.97L617.35,256.05L617.54,256.14L617.73,256.23L617.90,256.34L618.07,256.44L618.23,256.56L618.39,256.67L618.53,256.80L618.67,256.93L618.80,257.06L618.91,257.21L619.03,257.35L619.13,257.51L619.22,257.66L619.31,257.83L619.39,258.00L619.46,258.17L619.52,258.35L619.57,258.54L619.61,258.73L619.64,258.93L619.67,259.13L619.68,259.33L619.69,259.55L619.68,259.76L619.67,259.98L619.65,260.21L619.62,260.44L619.58,260.68L619.52,260.92L619.46,261.17L619.39,261.42L619.31,261.68L619.22,261.94L619.12,262.20L619.00,262.47L618.88,262.75L618.74,263.03L618.60,263.31L618.44,263.60L618.27,263.89L618.09,264.19L617.90,264.49L617.69,264.80L617.48,265.11L617.25,265.42L617.01,265.74L616.75,266.07L616.49,266.39L616.20,266.73L615.91,267.06L615.60,267.40L615.28,267.75L614.94,268.09L614.59,268.45L614.22,268.80L613.83,269.16L613.43,269.53L613.01,269.89L612.58,270.27L612.12,270.64L611.65,271.02L611.16,271.40L610.65,271.79L610.12,272.18L609.56,272.57L608.99,272.97L608.39,273.37L607.77,273.77L607.12,274.18L606.44,274.59L605.73,275.01L605.00,275.42L604.23,275.85L603.43,276.27L602.59,276.70L601.72,277.14L600.79,277.58L599.83,278.02L598.80,278.47L597.72,278.93L596.58,279.39L595.35,279.86L594.04,280.35L592.61,280.85L591.04,281.39L589.28,281.97L587.24,282.65L584.80,283.57L582.27,284.91L580.21,286.38L578.48,287.81L576.94,289.19L575.53,290.52L574.20,291.81L572.93,293.06L571.70,294.28L570.50,295.46L569.33,296.62L568.17,297.75L567.01,298.85L565.87,299.93L564.72,300.97L563.58,301.99L562.44,302.98L561.29,303.93L560.14,304.86L558.98,305.76L557.83,306.62L556.67,307.45L555.50,308.25L554.34,309.02L553.17,309.76L552.00,310.46L550.83,311.13L549.67,311.77L548.50,312.38L547.34,312.96L546.18,313.50L545.03,314.02L543.88,314.51L542.74,314.96L541.61,315.40L540.48,315.80L539.37,316.18L538.26,316.53L537.16,316.86L536.07,317.16L534.99,317.44L533.92,317.70L532.86,317.93L531.81,318.15L530.78,318.34L529.76,318.51L528.75,318.67L527.75,318.80L526.76,318.92L525.79,319.02L524.82,319.11L523.88,319.17L522.94,319.22L522.02,319.26L521.11,319.28L520.21,319.28L519.33,319.27L518.46,319.25L517.60,319.21L516.76,319.16L515.93,319.10L515.12,319.02L514.32,318.93L513.53,318.83L512.75,318.72L511.99,318.59L511.25,318.45L510.52,318.30L509.80,318.14L509.09,317.97L508.40,317.79L507.73,317.59L507.07,317.38L506.42,317.16L505.79,316.93L505.17,316.69L504.56,316.44L503.97,316.18L503.39,315.90L502.82,315.62L502.27,315.32L501.73,315.01L501.21,314.69L500.69,314.37L500.19,314.03L499.71,313.68L499.23,313.32L498.77,312.95L498.32,312.57L497.88,312.18L497.46,311.79L497.04,311.38L496.64,310.96L496.25,310.54L495.88,310.10L495.51,309.66L495.16,309.20L494.82,308.74L494.49,308.27L494.17,307.79L493.87,307.31L493.57,306.81L493.29,306.31L493.02,305.80L492.76,305.28L492.51,304.75L492.28,304.22L492.05,303.68L491.84,303.13L491.64,302.57L491.45,302.01L491.28,301.43L491.11,300.86L490.96,300.27L490.82,299.68L490.69,299.08L490.57,298.47L490.47,297.86L490.37,297.24L490.29,296.61L490.22,295.98L490.16,295.34L490.12,294.70L490.08,294.04L490.06,293.39L490.06,292.72L490.06,292.05L490.08,291.37L490.10,290.69L490.15,290.00L490.20,289.30L490.27,288.60L490.35,287.89L490.44,287.18L490.55,286.46L490.66,285.73L490.80,285.00L490.94,284.26L491.10,283.51L491.27,282.76L491.46,282.00L491.66,281.23L491.88,280.46L492.10,279.68L492.35,278.90L492.60,278.10L492.88,277.30L493.16,276.49L493.46,275.67L493.78,274.85L494.11,274.02L494.46,273.17L494.83,272.32L495.21,271.46L495.61,270.58L496.02,269.70L496.46,268.80L496.91,267.89L497.38,266.97L497.87,266.02L498.39,265.07L498.92,264.09L499.48,263.09L500.06,262.07L500.67,261.02L501.30,259.95L501.97,258.83L502.67,257.67L503.41,256.46L504.20,255.19L505.04,253.83L505.94,252.35L506.94,250.71L508.05,248.78L509.27,246.38L510.27,243.89L510.98,241.80L511.56,239.98L512.06,238.35L512.51,236.86L512.92,235.46L513.32,234.15L513.69,232.90L514.05,231.72L514.39,230.59L514.73,229.50L515.05,228.46L515.37,227.45L515.68,226.48L515.98,225.55L516.28,224.64L516.58,223.76L516.87,222.91L517.15,222.08L517.43,221.28L517.71,220.51L517.99,219.75L518.26,219.01L518.53,218.30L518.80,217.61L519.07,216.93L519.33,216.28L519.59,215.64L519.85,215.02L520.10,214.41L520.36,213.82L520.61,213.25L520.86,212.70L521.11,212.15L521.36,211.63L521.61,211.12L521.85,210.62L522.10,210.13L522.34,209.67L522.58,209.21L522.82,208.76L523.05,208.33L523.29,207.92L523.53,207.51L523.76,207.12L523.99,206.74L524.22,206.37L524.45,206.01L524.68,205.66L524.91,205.33L525.14,205.00L525.36,204.69L525.58,204.39L525.81,204.10L526.03,203.81L526.25,203.54L526.47,203.28L526.68,203.03L526.90,202.79L527.12,202.56L527.33,202.33L527.54,202.12L527.75,201.92L527.96,201.72L528.17,201.54L528.38,201.36L528.58,201.20L528.78,201.04L528.99,200.89L529.18,200.75L529.38,200.61L529.58,200.49L529.77,200.38L529.97,200.27L530.16,200.17L530.34,200.08L530.53,200.00L530.71,199.93L530.90,199.86L531.07,199.81L531.25,199.76L531.43,199.73L531.60,199.70L531.77,199.68L531.94,199.67L532.10,199.66L532.26,199.67L532.42,199.68L532.58,199.71L532.74,199.74L532.89,199.78L533.04,199.83L533.19,199.89L533.33,199.96L533.48,200.03L533.62,200.12L533.75,200.21L533.89,200.32L534.02,200.43L534.15,200.55L534.27,200.68L534.40,200.82L534.52,200.97L534.64,201.13L534.75,201.30L534.86,201.47L534.97,201.66L535.08,201.85L535.18,202.06L535.28,202.27L535.38,202.49L535.47,202.73L535.56,202.97L535.65,203.22L535.74,203.48L535.82,203.75L535.90,204.03L535.97,204.32L536.04,204.62L536.11,204.93L536.18,205.25L536.24,205.59L536.29,205.93L536.35,206.28L536.40,206.64L536.45,207.01L536.49,207.39L536.53,207.79L536.56,208.19L536.59,208.61L536.62,209.03L536.64,209.47L536.66,209.92L536.68,210.38L536.69,210.85L536.69,211.34L536.69,211.83L536.69,212.34L536.68,212.86L536.67,213.40L536.65,213.94L536.62,214.50L536.59,215.08L536.56,215.66L536.52,216.26L536.47,216.88L536.42,217.51L536.36,218.15L536.30,218.81L536.23,219.49L536.15,220.18L536.06,220.89L535.97,221.61L535.87,222.35L535.76,223.12L535.64,223.90L535.52,224.70L535.38,225.52L535.23,226.36L535.08,227.22L534.91,228.11L534.73,229.02L534.54,229.95L534.33,230.92L534.12,231.91L533.88,232.93L533.63,233.99L533.35,235.08L533.06,236.21L532.74,237.38L532.40,238.60L532.03,239.86L531.62,241.19L531.16,242.58L530.66,244.04L530.08,245.59L529.43,247.25L528.65,249.04L527.68,251.00L526.40,253.18L524.54,255.54L522.08,257.55L519.70,258.88L517.58,259.81L515.67,260.54L513.91,261.14L512.27,261.66L510.73,262.11L509.27,262.52L507.88,262.90L506.54,263.24L505.26,263.56L504.01,263.86L502.81,264.14L501.64,264.40L500.50,264.65L499.40,264.89L498.31,265.12L497.25,265.34L496.22,265.55L495.20,265.76L494.20,265.96L493.22,266.15L492.25,266.33L491.30,266.51L490.36,266.68L489.44,266.85L488.53,267.02L487.62,267.18L486.73,267.34L485.85,267.49L484.97,267.64L484.10,267.79L483.24,267.93L482.39,268.07L481.54,268.20L480.69,268.34L479.86,268.47L479.02,268.59L478.19,268.72L477.36,268.84L476.54,268.95L475.72,269.07L474.90,269.18L474.08,269.29L473.26,269.39L472.44,269.49L471.62,269.59L470.80,269.68L469.98,269.77L469.16,269.86L468.34,269.94L467.52,270.01L466.69,270.09L465.86,270.15L465.03,270.22L464.19,270.27L463.35,270.32L462.50,270.37L461.65,270.40L460.79,270.43L459.93,270.46L459.06,270.47L458.18,270.48L457.30,270.48L456.41,270.46L455.51,270.44L454.60,270.41L453.68,270.36L452.75,270.30L451.82,270.23L450.87,270.14L449.91,270.04L448.94,269.91L447.97,269.77L446.97,269.61L445.97,269.43L444.96,269.22L443.93,268.99L442.90,268.73L441.85,268.43L440.79,268.11L439.73,267.75L438.65,267.35L437.57,266.91L436.49,266.42L435.40,265.89L434.31,265.30L433.23,264.66L432.17,263.96L431.11,263.21L430.08,262.39L429.08,261.51L428.11,260.56L427.19,259.56L426.32,258.50L425.50,257.38L424.76,256.22L424.08,255.02L423.47,253.79L422.94,252.53L422.49,251.26L422.11,249.99L421.79,248.71L421.55,247.44L421.37,246.18L421.25,244.94L421.18,243.72L421.17,242.52L421.20,241.34L421.27,240.19L421.38,239.06L421.53,237.96L421.70,236.89L421.91,235.84L422.14,234.82L422.40,233.82L422.68,232.85L422.98,231.90L423.30,230.98L423.64,230.08L423.99,229.21L424.36,228.36L424.74,227.53L425.13,226.72L425.53,225.93L425.95,225.16L426.38,224.41L426.81,223.69L427.26,222.98L427.71,222.29L428.17,221.61L428.64,220.96L429.12,220.32L429.60,219.70L430.09,219.10L430.59,218.51L431.09,217.94L431.60,217.39L432.12,216.85L432.64,216.33L433.16,215.82L433.69,215.33L434.23,214.85L434.77,214.38L435.32,213.94L435.86,213.50L436.42,213.08L436.98,212.68L437.54,212.29L438.11,211.91L438.68,211.55L439.25,211.21L439.83,210.87L440.41,210.55L441.00,210.25L441.59,209.96L442.18,209.68L442.78,209.42L443.38,209.17L443.99,208.93L444.59,208.71L445.20,208.51L445.82,208.32L446.44,208.14L447.06,207.98L447.68,207.83L448.31,207.70L448.94,207.59L449.57,207.48L450.21,207.40L450.85,207.33L451.49,207.28L452.13,207.24L452.78,207.22L453.43,207.21L454.08,207.22L454.73,207.25L455.38,207.30L456.04,207.36L456.70,207.45L457.36,207.55L458.02,207.67L458.68,207.81L459.34,207.97L460.00,208.15L460.66,208.35L461.32,208.57L461.98,208.81L462.64,209.07L463.30,209.36L463.96,209.67L464.61,210.00L465.26,210.36L465.90,210.74L466.55,211.14L467.18,211.57L467.81,212.03L468.43,212.51L469.05,213.02L469.65,213.55L470.25,214.11L470.84,214.70L471.41,215.32L471.97,215.96L472.52,216.63L473.05,217.33L473.56,218.06L474.06,218.82L474.55,219.60L475.01,220.41L475.46,221.25L475.88,222.12L476.29,223.02L476.68,223.94L477.04,224.90L477.39,225.88L477.71,226.89L478.00,227.94L478.28,229.01L478.52,230.12L478.74,231.26L478.93,232.44L479.09,233.65L479.22,234.91L479.31,236.21L479.37,237.56L479.38,238.96L479.34,240.42L479.24,241.97L479.06,243.60L478.78,245.34L478.34,247.24L477.64,249.33L476.47,251.56L474.93,253.48L473.49,254.93L472.22,256.11L471.06,257.13L470.01,258.05L469.02,258.89L468.09,259.68L467.20,260.42L466.35,261.12L465.53,261.79L464.74,262.44L463.98,263.05L463.23,263.65L462.50,264.22L461.79,264.78L461.09,265.31L460.40,265.83L459.72,266.34L459.06,266.82L458.40,267.30L457.75,267.76L457.11,268.20L456.48,268.64L455.85,269.06L455.23,269.46L454.61,269.86L454.00,270.25L453.39,270.62L452.79,270.98L452.20,271.33L451.60,271.67L451.01,272.01L450.43,272.33L449.85,272.64L449.27,272.94L448.70,273.23L448.12,273.51L447.56,273.78L446.99,274.04L446.43,274.30L445.87,274.54L445.31,274.78L444.76,275.00L444.21,275.22L443.66,275.43L443.11,275.63L442.57,275.82L442.03,276.01L441.49,276.18L440.95,276.35L440.42,276.51L439.88,276.66L439.35,276.80L438.83,276.94L438.30,277.06L437.78,277.18L437.26,277.30L436.74,277.40L436.23,277.50L435.71,277.59L435.20,277.67L434.69,277.74L434.19,277.81L433.68,277.87L433.18,277.92L432.68,277.96L432.18,278.00L431.69,278.03L431.19,278.05L430.70,278.07L430.21,278.08L429.73,278.08L429.24,278.08L428.76,278.06L428.28,278.05L427.81,278.02L427.33,277.99L426.86,277.95L426.39,277.90L425.92,277.85L425.46,277.79L425.00,277.72L424.54,277.65L424.08,277.57L423.62,277.48L423.17,277.39L422.72,277.29L422.27,277.18L421.83,277.07L421.38,276.95L420.95,276.82L420.51,276.69L420.07,276.55L419.64,276.40L419.21,276.25L418.78,276.09L418.36,275.92L417.94,275.75L417.52,275.57L417.11,275.38L416.69,275.19L416.28,274.99L415.87,274.78L415.47,274.57L415.07,274.35L414.67,274.13L414.27,273.90L413.88,273.66L413.49,273.41L413.10,273.16L412.72,272.90L412.34,272.64L411.96,272.36L411.59,272.09L411.21,271.80L410.85,271.51L410.48,271.21L410.12,270.90L409.76,270.59L409.40,270.27L409.05,269.95L408.70,269.62L408.36,269.28L408.01,268.93L407.68,268.58L407.34,268.21L407.01,267.85L406.68,267.47L406.36,267.09L406.03,266.70L405.72,266.30L405.40,265.90L405.09,265.49L404.79,265.07L404.48,264.64L404.19,264.21L403.89,263.77L403.60,263.32L403.31,262.86L403.03,262.39L402.75,261.92L402.48,261.44L402.21,260.95L401.94,260.45L401.68,259.94L401.42,259.42L401.17,258.90L400.92,258.36L400.68,257.82L400.44,257.27L400.21,256.71L399.98,256.13L399.75,255.55L399.53,254.96L399.32,254.36L399.11,253.74L398.90,253.12L398.70,252.48L398.51,251.84L398.32,251.18L398.14,250.51L397.96,249.82L397.79,249.12L397.63,248.41L397.50,247.69L397.50,246.94L397.50,246.19L397.50,245.42L397.50,244.63L397.50,243.82L397.50,242.99L397.50,242.15L397.50,241.28L397.50,240.39L397.50,239.47L397.50,238.54L397.50,237.57L397.50,236.57L397.50,235.54L397.50,234.47L397.50,233.37L397.50,232.22L397.50,231.02L397.50,229.77L397.50,228.45L397.50,227.06L397.50,225.58L397.50,223.99L397.50,222.28L397.70,220.40L398.42,218.33L399.56,216.04L401.34,213.80L403.56,212.08L405.77,210.95L407.82,210.18L409.72,209.63L411.49,209.23L413.16,208.93L414.74,208.71L416.25,208.56L417.68,208.46L419.06,208.40L420.39,208.38L421.67,208.39L422.90,208.43L424.09,208.50L425.25,208.60L426.37,208.72L427.46,208.86L428.52,209.02L429.55,209.20L430.55,209.40L431.52,209.62L432.47,209.85L433.39,210.10L434.28,210.37L435.15,210.65L436.00,210.94L436.82,211.25L437.62,211.58L438.39,211.91L439.15,212.26L439.88,212.62L440.58,213.00L441.27,213.38L441.93,213.78L442.57,214.18L443.19,214.60L443.79,215.03L444.37,215.46L444.92,215.91L445.45,216.36L445.96,216.82L446.45,217.29L446.92,217.77L447.37,218.25L447.80,218.74L448.20,219.24L448.59,219.74L448.95,220.24L449.30,220.76L449.62,221.27L449.93,221.80L450.21,222.32L450.48,222.85L450.73,223.38L450.95,223.92L451.16,224.46L451.35,225.00L451.53,225.54L451.68,226.09L451.82,226.63L451.94,227.18L452.05,227.72L452.13,228.27L452.20,228.82L452.26,229.36L452.29,229.91L452.32,230.45L452.32,231.00L452.31,231.54L452.28,232.08L452.24,232.62L452.19,233.15L452.12,233.69L452.03,234.22L451.93,234.74L451.81,235.27L451.69,235.79L451.54,236.31L451.39,236.82L451.22,237.33L451.03,237.84L450.84,238.34L450.63,238.84L450.40,239.33L450.17,239.82L449.92,240.31L449.66,240.78L449.39,241.26L449.10,241.73L448.81,242.19L448.50,242.65L448.18,243.11L447.85,243.55L447.51,244.00L447.15,244.43L446.79,244.87L446.42,245.29L446.03,245.71L445.63,246.13L445.23,246.53L444.81,246.93L444.38,247.33L443.95,247.72L443.50,248.10L443.05,248.48L442.58,248.85L442.10,249.21L441.62,249.57L441.13,249.92L440.62,250.26L440.11,250.60L439.59,250.93L439.06,251.25L438.52,251.57L437.97,251.88L437.41,252.18L436.85,252.48L436.28,252.77L435.69,253.05L435.10,253.32L434.51,253.59L433.90,253.85L433.28,254.10L432.66,254.35L432.03,254.59L431.39,254.82L430.75,255.04L430.09,255.25L429.43,255.46L428.76,255.66L428.08,255.86L427.40,256.04L426.71,256.22L426.01,256.39L425.30,256.55L424.59,256.70L423.87,256.85L423.14,256.99L422.40,257.12L421.66,257.24L420.91,257.35L420.15,257.46L419.39,257.55L418.61,257.64L417.83,257.72L417.05,257.79L416.25,257.86L415.45,257.91L414.65,257.96L413.83,257.99L413.01,258.02L412.18,258.04L411.34,258.05L410.50,258.05L409.65,258.05L408.79,258.03L407.93,258.01L407.05,257.97L406.17,257.93L405.29,257.87L404.39,257.81L403.49,257.73L402.58,257.65L401.66,257.55L400.73,257.45L399.80,257.34L398.85,257.21L397.90,257.07L397.50,256.93L397.50,256.77L397.50,256.60L397.50,256.42L397.50,256.23L397.50,256.02L397.50,255.81L397.50,255.58L397.50,255.33L397.50,255.08L397.50,254.81L397.50,254.52L397.50,254.22L397.50,253.91L397.50,253.58L397.50,253.23L397.50,252.87L397.50,252.48L397.50,252.08L397.50,251.66L397.50,251.22L397.50,250.75L397.50,250.26L397.50,249.74L397.50,249.19L397.50,248.62L397.50,248.00L397.50,247.35L397.50,246.66L397.50,245.91L397.50,245.11L397.50,244.24L397.50,243.29L397.50,242.25L397.50,241.09L397.50,239.78L397.50,238.27L397.50,236.50L397.50,234.40L397.50,231.95L397.50,229.29L397.50,226.65L397.50,224.18L397.50,221.93L397.50,219.86L397.50,217.94L397.50,216.16L397.50,214.49L397.50,212.91L397.50,211.41L397.50,209.97L397.50,208.60L397.50,207.29L397.50,206.02L397.50,204.79L397.50,203.61L397.50,202.46" fill="none" stroke="#ffd27d" stroke-width="13" stroke-opacity=".18" stroke-linecap="round" stroke-linejoin="round" filter="url(#glow)"/><path d="M559.50,312.50L559.51,311.39L559.54,310.26L559.60,309.13L559.68,307.98L559.78,306.82L559.91,305.65L560.06,304.47L560.24,303.27L560.44,302.06L560.68,300.84L560.94,299.59L561.24,298.33L561.57,297.05L561.93,295.75L562.34,294.43L562.79,293.08L563.29,291.70L563.84,290.28L564.47,288.82L565.17,287.31L565.98,285.72L566.95,284.05L568.15,282.25L569.77,280.32L571.79,278.54L573.61,277.21L575.17,276.13L576.54,275.19L577.79,274.33L578.95,273.52L580.04,272.77L581.07,272.05L582.05,271.37L582.99,270.71L583.89,270.08L584.76,269.47L585.61,268.88L586.43,268.32L587.24,267.77L588.02,267.24L588.78,266.72L589.52,266.22L590.25,265.74L590.97,265.27L591.67,264.82L592.35,264.37L593.03,263.95L593.69,263.53L594.34,263.13L594.98,262.75L595.61,262.37L596.23,262.01L596.84,261.65L597.43,261.31L598.02,260.99L598.60,260.67L599.17,260.36L599.73,260.07L600.29,259.78L600.83,259.51L601.37,259.24L601.90,258.99L602.42,258.74L602.93,258.51L603.43,258.29L603.93,258.07L604.41,257.87L604.89,257.67L605.36,257.48L605.83,257.31L606.29,257.14L606.73,256.98L607.18,256.83L607.61,256.68L608.04,256.55L608.46,256.42L608.87,256.31L609.27,256.20L609.67,256.10L610.06,256.00L610.44,255.92L610.81,255.84L611.18,255.77L611.54,255.71L611.89,255.66L612.23,255.61L612.57,255.57L612.90,255.54L613.22,255.51L613.54,255.50L613.84,255.49L614.14,255.48L614.44,255.49L614.72,255.50L615.00,255.51L615.27,255.54L615.53,255.57L615.78,255.61L616.03,255.65L616.27,255.70L616.50,255.76L616.73,255.82L616.94,255.89L617.15,255.97L617.35,256.05L617.54,256.14L617.73,256.23L617.90,256.34L618.07,256.44L618.23,256.56L618.39,256.67L618.53,256.80L618.67,256.93L618.80,257.06L618.91,257.21L619.03,257.35L619.13,257.51L619.22,257.66L619.31,257.83L619.39,258.00L619.46,258.17L619.52,258.35L619.57,258.54L619.61,258.73L619.64,258.93L619.67,259.13L619.68,259.33L619.69,259.55L619.68,259.76L619.67,259.98L619.65,260.21L619.62,260.44L619.58,260.68L619.52,260.92L619.46,261.17L619.39,261.42L619.31,261.68L619.22,261.94L619.12,262.20L619.00,262.47L618.88,262.75L618.74,263.03L618.60,263.31L618.44,263.60L618.27,263.89L618.09,264.19L617.90,264.49L617.69,264.80L617.48,265.11L617.25,265.42L617.01,265.74L616.75,266.07L616.49,266.39L616.20,266.73L615.91,267.06L615.60,267.40L615.28,267.75L614.94,268.09L614.59,268.45L614.22,268.80L613.83,269.16L613.43,269.53L613.01,269.89L612.58,270.27L612.12,270.64L611.65,271.02L611.16,271.40L610.65,271.79L610.12,272.18L609.56,272.57L608.99,272.97L608.39,273.37L607.77,273.77L607.12,274.18L606.44,274.59L605.73,275.01L605.00,275.42L604.23,275.85L603.43,276.27L602.59,276.70L601.72,277.14L600.79,277.58L599.83,278.02L598.80,278.47L597.72,278.93L596.58,279.39L595.35,279.86L594.04,280.35L592.61,280.85L591.04,281.39L589.28,281.97L587.24,282.65L584.80,283.57L582.27,284.91L580.21,286.38L578.48,287.81L576.94,289.19L575.53,290.52L574.20,291.81L572.93,293.06L571.70,294.28L570.50,295.46L569.33,296.62L568.17,297.75L567.01,298.85L565.87,299.93L564.72,300.97L563.58,301.99L562.44,302.98L561.29,303.93L560.14,304.86L558.98,305.76L557.83,306.62L556.67,307.45L555.50,308.25L554.34,309.02L553.17,309.76L552.00,310.46L550.83,311.13L549.67,311.77L548.50,312.38L547.34,312.96L546.18,313.50L545.03,314.02L543.88,314.51L542.74,314.96L541.61,315.40L540.48,315.80L539.37,316.18L538.26,316.53L537.16,316.86L536.07,317.16L534.99,317.44L533.92,317.70L532.86,317.93L531.81,318.15L530.78,318.34L529.76,318.51L528.75,318.67L527.75,318.80L526.76,318.92L525.79,319.02L524.82,319.11L523.88,319.17L522.94,319.22L522.02,319.26L521.11,319.28L520.21,319.28L519.33,319.27L518.46,319.25L517.60,319.21L516.76,319.16L515.93,319.10L515.12,319.02L514.32,318.93L513.53,318.83L512.75,318.72L511.99,318.59L511.25,318.45L510.52,318.30L509.80,318.14L509.09,317.97L508.40,317.79L507.73,317.59L507.07,317.38L506.42,317.16L505.79,316.93L505.17,316.69L504.56,316.44L503.97,316.18L503.39,315.90L502.82,315.62L502.27,315.32L501.73,315.01L501.21,314.69L500.69,314.37L500.19,314.03L499.71,313.68L499.23,313.32L498.77,312.95L498.32,312.57L497.88,312.18L497.46,311.79L497.04,311.38L496.64,310.96L496.25,310.54L495.88,310.10L495.51,309.66L495.16,309.20L494.82,308.74L494.49,308.27L494.17,307.79L493.87,307.31L493.57,306.81L493.29,306.31L493.02,305.80L492.76,305.28L492.51,304.75L492.28,304.22L492.05,303.68L491.84,303.13L491.64,302.57L491.45,302.01L491.28,301.43L491.11,300.86L490.96,300.27L490.82,299.68L490.69,299.08L490.57,298.47L490.47,297.86L490.37,297.24L490.29,296.61L490.22,295.98L490.16,295.34L490.12,294.70L490.08,294.04L490.06,293.39L490.06,292.72L490.06,292.05L490.08,291.37L490.10,290.69L490.15,290.00L490.20,289.30L490.27,288.60L490.35,287.89L490.44,287.18L490.55,286.46L490.66,285.73L490.80,285.00L490.94,284.26L491.10,283.51L491.27,282.76L491.46,282.00L491.66,281.23L491.88,280.46L492.10,279.68L492.35,278.90L492.60,278.10L492.88,277.30L493.16,276.49L493.46,275.67L493.78,274.85L494.11,274.02L494.46,273.17L494.83,272.32L495.21,271.46L495.61,270.58L496.02,269.70L496.46,268.80L496.91,267.89L497.38,266.97L497.87,266.02L498.39,265.07L498.92,264.09L499.48,263.09L500.06,262.07L500.67,261.02L501.30,259.95L501.97,258.83L502.67,257.67L503.41,256.46L504.20,255.19L505.04,253.83L505.94,252.35L506.94,250.71L508.05,248.78L509.27,246.38L510.27,243.89L510.98,241.80L511.56,239.98L512.06,238.35L512.51,236.86L512.92,235.46L513.32,234.15L513.69,232.90L514.05,231.72L514.39,230.59L514.73,229.50L515.05,228.46L515.37,227.45L515.68,226.48L515.98,225.55L516.28,224.64L516.58,223.76L516.87,222.91L517.15,222.08L517.43,221.28L517.71,220.51L517.99,219.75L518.26,219.01L518.53,218.30L518.80,217.61L519.07,216.93L519.33,216.28L519.59,215.64L519.85,215.02L520.10,214.41L520.36,213.82L520.61,213.25L520.86,212.70L521.11,212.15L521.36,211.63L521.61,211.12L521.85,210.62L522.10,210.13L522.34,209.67L522.58,209.21L522.82,208.76L523.05,208.33L523.29,207.92L523.53,207.51L523.76,207.12L523.99,206.74L524.22,206.37L524.45,206.01L524.68,205.66L524.91,205.33L525.14,205.00L525.36,204.69L525.58,204.39L525.81,204.10L526.03,203.81L526.25,203.54L526.47,203.28L526.68,203.03L526.90,202.79L527.12,202.56L527.33,202.33L527.54,202.12L527.75,201.92L527.96,201.72L528.17,201.54L528.38,201.36L528.58,201.20L528.78,201.04L528.99,200.89L529.18,200.75L529.38,200.61L529.58,200.49L529.77,200.38L529.97,200.27L530.16,200.17L530.34,200.08L530.53,200.00L530.71,199.93L530.90,199.86L531.07,199.81L531.25,199.76L531.43,199.73L531.60,199.70L531.77,199.68L531.94,199.67L532.10,199.66L532.26,199.67L532.42,199.68L532.58,199.71L532.74,199.74L532.89,199.78L533.04,199.83L533.19,199.89L533.33,199.96L533.48,200.03L533.62,200.12L533.75,200.21L533.89,200.32L534.02,200.43L534.15,200.55L534.27,200.68L534.40,200.82L534.52,200.97L534.64,201.13L534.75,201.30L534.86,201.47L534.97,201.66L535.08,201.85L535.18,202.06L535.28,202.27L535.38,202.49L535.47,202.73L535.56,202.97L535.65,203.22L535.74,203.48L535.82,203.75L535.90,204.03L535.97,204.32L536.04,204.62L536.11,204.93L536.18,205.25L536.24,205.59L536.29,205.93L536.35,206.28L536.40,206.64L536.45,207.01L536.49,207.39L536.53,207.79L536.56,208.19L536.59,208.61L536.62,209.03L536.64,209.47L536.66,209.92L536.68,210.38L536.69,210.85L536.69,211.34L536.69,211.83L536.69,212.34L536.68,212.86L536.67,213.40L536.65,213.94L536.62,214.50L536.59,215.08L536.56,215.66L536.52,216.26L536.47,216.88L536.42,217.51L536.36,218.15L536.30,218.81L536.23,219.49L536.15,220.18L536.06,220.89L535.97,221.61L535.87,222.35L535.76,223.12L535.64,223.90L535.52,224.70L535.38,225.52L535.23,226.36L535.08,227.22L534.91,228.11L534.73,229.02L534.54,229.95L534.33,230.92L534.12,231.91L533.88,232.93L533.63,233.99L533.35,235.08L533.06,236.21L532.74,237.38L532.40,238.60L532.03,239.86L531.62,241.19L531.16,242.58L530.66,244.04L530.08,245.59L529.43,247.25L528.65,249.04L527.68,251.00L526.40,253.18L524.54,255.54L522.08,257.55L519.70,258.88L517.58,259.81L515.67,260.54L513.91,261.14L512.27,261.66L510.73,262.11L509.27,262.52L507.88,262.90L506.54,263.24L505.26,263.56L504.01,263.86L502.81,264.14L501.64,264.40L500.50,264.65L499.40,264.89L498.31,265.12L497.25,265.34L496.22,265.55L495.20,265.76L494.20,265.96L493.22,266.15L492.25,266.33L491.30,266.51L490.36,266.68L489.44,266.85L488.53,267.02L487.62,267.18L486.73,267.34L485.85,267.49L484.97,267.64L484.10,267.79L483.24,267.93L482.39,268.07L481.54,268.20L480.69,268.34L479.86,268.47L479.02,268.59L478.19,268.72L477.36,268.84L476.54,268.95L475.72,269.07L474.90,269.18L474.08,269.29L473.26,269.39L472.44,269.49L471.62,269.59L470.80,269.68L469.98,269.77L469.16,269.86L468.34,269.94L467.52,270.01L466.69,270.09L465.86,270.15L465.03,270.22L464.19,270.27L463.35,270.32L462.50,270.37L461.65,270.40L460.79,270.43L459.93,270.46L459.06,270.47L458.18,270.48L457.30,270.48L456.41,270.46L455.51,270.44L454.60,270.41L453.68,270.36L452.75,270.30L451.82,270.23L450.87,270.14L449.91,270.04L448.94,269.91L447.97,269.77L446.97,269.61L445.97,269.43L444.96,269.22L443.93,268.99L442.90,268.73L441.85,268.43L440.79,268.11L439.73,267.75L438.65,267.35L437.57,266.91L436.49,266.42L435.40,265.89L434.31,265.30L433.23,264.66L432.17,263.96L431.11,263.21L430.08,262.39L429.08,261.51L428.11,260.56L427.19,259.56L426.32,258.50L425.50,257.38L424.76,256.22L424.08,255.02L423.47,253.79L422.94,252.53L422.49,251.26L422.11,249.99L421.79,248.71L421.55,247.44L421.37,246.18L421.25,244.94L421.18,243.72L421.17,242.52L421.20,241.34L421.27,240.19L421.38,239.06L421.53,237.96L421.70,236.89L421.91,235.84L422.14,234.82L422.40,233.82L422.68,232.85L422.98,231.90L423.30,230.98L423.64,230.08L423.99,229.21L424.36,228.36L424.74,227.53L425.13,226.72L425.53,225.93L425.95,225.16L426.38,224.41L426.81,223.69L427.26,222.98L427.71,222.29L428.17,221.61L428.64,220.96L429.12,220.32L429.60,219.70L430.09,219.10L430.59,218.51L431.09,217.94L431.60,217.39L432.12,216.85L432.64,216.33L433.16,215.82L433.69,215.33L434.23,214.85L434.77,214.38L435.32,213.94L435.86,213.50L436.42,213.08L436.98,212.68L437.54,212.29L438.11,211.91L438.68,211.55L439.25,211.21L439.83,210.87L440.41,210.55L441.00,210.25L441.59,209.96L442.18,209.68L442.78,209.42L443.38,209.17L443.99,208.93L444.59,208.71L445.20,208.51L445.82,208.32L446.44,208.14L447.06,207.98L447.68,207.83L448.31,207.70L448.94,207.59L449.57,207.48L450.21,207.40L450.85,207.33L451.49,207.28L452.13,207.24L452.78,207.22L453.43,207.21L454.08,207.22L454.73,207.25L455.38,207.30L456.04,207.36L456.70,207.45L457.36,207.55L458.02,207.67L458.68,207.81L459.34,207.97L460.00,208.15L460.66,208.35L461.32,208.57L461.98,208.81L462.64,209.07L463.30,209.36L463.96,209.67L464.61,210.00L465.26,210.36L465.90,210.74L466.55,211.14L467.18,211.57L467.81,212.03L468.43,212.51L469.05,213.02L469.65,213.55L470.25,214.11L470.84,214.70L471.41,215.32L471.97,215.96L472.52,216.63L473.05,217.33L473.56,218.06L474.06,218.82L474.55,219.60L475.01,220.41L475.46,221.25L475.88,222.12L476.29,223.02L476.68,223.94L477.04,224.90L477.39,225.88L477.71,226.89L478.00,227.94L478.28,229.01L478.52,230.12L478.74,231.26L478.93,232.44L479.09,233.65L479.22,234.91L479.31,236.21L479.37,237.56L479.38,238.96L479.34,240.42L479.24,241.97L479.06,243.60L478.78,245.34L478.34,247.24L477.64,249.33L476.47,251.56L474.93,253.48L473.49,254.93L472.22,256.11L471.06,257.13L470.01,258.05L469.02,258.89L468.09,259.68L467.20,260.42L466.35,261.12L465.53,261.79L464.74,262.44L463.98,263.05L463.23,263.65L462.50,264.22L461.79,264.78L461.09,265.31L460.40,265.83L459.72,266.34L459.06,266.82L458.40,267.30L457.75,267.76L457.11,268.20L456.48,268.64L455.85,269.06L455.23,269.46L454.61,269.86L454.00,270.25L453.39,270.62L452.79,270.98L452.20,271.33L451.60,271.67L451.01,272.01L450.43,272.33L449.85,272.64L449.27,272.94L448.70,273.23L448.12,273.51L447.56,273.78L446.99,274.04L446.43,274.30L445.87,274.54L445.31,274.78L444.76,275.00L444.21,275.22L443.66,275.43L443.11,275.63L442.57,275.82L442.03,276.01L441.49,276.18L440.95,276.35L440.42,276.51L439.88,276.66L439.35,276.80L438.83,276.94L438.30,277.06L437.78,277.18L437.26,277.30L436.74,277.40L436.23,277.50L435.71,277.59L435.20,277.67L434.69,277.74L434.19,277.81L433.68,277.87L433.18,277.92L432.68,277.96L432.18,278.00L431.69,278.03L431.19,278.05L430.70,278.07L430.21,278.08L429.73,278.08L429.24,278.08L428.76,278.06L428.28,278.05L427.81,278.02L427.33,277.99L426.86,277.95L426.39,277.90L425.92,277.85L425.46,277.79L425.00,277.72L424.54,277.65L424.08,277.57L423.62,277.48L423.17,277.39L422.72,277.29L422.27,277.18L421.83,277.07L421.38,276.95L420.95,276.82L420.51,276.69L420.07,276.55L419.64,276.40L419.21,276.25L418.78,276.09L418.36,275.92L417.94,275.75L417.52,275.57L417.11,275.38L416.69,275.19L416.28,274.99L415.87,274.78L415.47,274.57L415.07,274.35L414.67,274.13L414.27,273.90L413.88,273.66L413.49,273.41L413.10,273.16L412.72,272.90L412.34,272.64L411.96,272.36L411.59,272.09L411.21,271.80L410.85,271.51L410.48,271.21L410.12,270.90L409.76,270.59L409.40,270.27L409.05,269.95L408.70,269.62L408.36,269.28L408.01,268.93L407.68,268.58L407.34,268.21L407.01,267.85L406.68,267.47L406.36,267.09L406.03,266.70L405.72,266.30L405.40,265.90L405.09,265.49L404.79,265.07L404.48,264.64L404.19,264.21L403.89,263.77L403.60,263.32L403.31,262.86L403.03,262.39L402.75,261.92L402.48,261.44L402.21,260.95L401.94,260.45L401.68,259.94L401.42,259.42L401.17,258.90L400.92,258.36L400.68,257.82L400.44,257.27L400.21,256.71L399.98,256.13L399.75,255.55L399.53,254.96L399.32,254.36L399.11,253.74L398.90,253.12L398.70,252.48L398.51,251.84L398.32,251.18L398.14,250.51L397.96,249.82L397.79,249.12L397.63,248.41L397.50,247.69L397.50,246.94L397.50,246.19L397.50,245.42L397.50,244.63L397.50,243.82L397.50,242.99L397.50,242.15L397.50,241.28L397.50,240.39L397.50,239.47L397.50,238.54L397.50,237.57L397.50,236.57L397.50,235.54L397.50,234.47L397.50,233.37L397.50,232.22L397.50,231.02L397.50,229.77L397.50,228.45L397.50,227.06L397.50,225.58L397.50,223.99L397.50,222.28L397.70,220.40L398.42,218.33L399.56,216.04L401.34,213.80L403.56,212.08L405.77,210.95L407.82,210.18L409.72,209.63L411.49,209.23L413.16,208.93L414.74,208.71L416.25,208.56L417.68,208.46L419.06,208.40L420.39,208.38L421.67,208.39L422.90,208.43L424.09,208.50L425.25,208.60L426.37,208.72L427.46,208.86L428.52,209.02L429.55,209.20L430.55,209.40L431.52,209.62L432.47,209.85L433.39,210.10L434.28,210.37L435.15,210.65L436.00,210.94L436.82,211.25L437.62,211.58L438.39,211.91L439.15,212.26L439.88,212.62L440.58,213.00L441.27,213.38L441.93,213.78L442.57,214.18L443.19,214.60L443.79,215.03L444.37,215.46L444.92,215.91L445.45,216.36L445.96,216.82L446.45,217.29L446.92,217.77L447.37,218.25L447.80,218.74L448.20,219.24L448.59,219.74L448.95,220.24L449.30,220.76L449.62,221.27L449.93,221.80L450.21,222.32L450.48,222.85L450.73,223.38L450.95,223.92L451.16,224.46L451.35,225.00L451.53,225.54L451.68,226.09L451.82,226.63L451.94,227.18L452.05,227.72L452.13,228.27L452.20,228.82L452.26,229.36L452.29,229.91L452.32,230.45L452.32,231.00L452.31,231.54L452.28,232.08L452.24,232.62L452.19,233.15L452.12,233.69L452.03,234.22L451.93,234.74L451.81,235.27L451.69,235.79L451.54,236.31L451.39,236.82L451.22,237.33L451.03,237.84L450.84,238.34L450.63,238.84L450.40,239.33L450.17,239.82L449.92,240.31L449.66,240.78L449.39,241.26L449.10,241.73L448.81,242.19L448.50,242.65L448.18,243.11L447.85,243.55L447.51,244.00L447.15,244.43L446.79,244.87L446.42,245.29L446.03,245.71L445.63,246.13L445.23,246.53L444.81,246.93L444.38,247.33L443.95,247.72L443.50,248.10L443.05,248.48L442.58,248.85L442.10,249.21L441.62,249.57L441.13,249.92L440.62,250.26L440.11,250.60L439.59,250.93L439.06,251.25L438.52,251.57L437.97,251.88L437.41,252.18L436.85,252.48L436.28,252.77L435.69,253.05L435.10,253.32L434.51,253.59L433.90,253.85L433.28,254.10L432.66,254.35L432.03,254.59L431.39,254.82L430.75,255.04L430.09,255.25L429.43,255.46L428.76,255.66L428.08,255.86L427.40,256.04L426.71,256.22L426.01,256.39L425.30,256.55L424.59,256.70L423.87,256.85L423.14,256.99L422.40,257.12L421.66,257.24L420.91,257.35L420.15,257.46L419.39,257.55L418.61,257.64L417.83,257.72L417.05,257.79L416.25,257.86L415.45,257.91L414.65,257.96L413.83,257.99L413.01,258.02L412.18,258.04L411.34,258.05L410.50,258.05L409.65,258.05L408.79,258.03L407.93,258.01L407.05,257.97L406.17,257.93L405.29,257.87L404.39,257.81L403.49,257.73L402.58,257.65L401.66,257.55L400.73,257.45L399.80,257.34L398.85,257.21L397.90,257.07L397.50,256.93L397.50,256.77L397.50,256.60L397.50,256.42L397.50,256.23L397.50,256.02L397.50,255.81L397.50,255.58L397.50,255.33L397.50,255.08L397.50,254.81L397.50,254.52L397.50,254.22L397.50,253.91L397.50,253.58L397.50,253.23L397.50,252.87L397.50,252.48L397.50,252.08L397.50,251.66L397.50,251.22L397.50,250.75L397.50,250.26L397.50,249.74L397.50,249.19L397.50,248.62L397.50,248.00L397.50,247.35L397.50,246.66L397.50,245.91L397.50,245.11L397.50,244.24L397.50,243.29L397.50,242.25L397.50,241.09L397.50,239.78L397.50,238.27L397.50,236.50L397.50,234.40L397.50,231.95L397.50,229.29L397.50,226.65L397.50,224.18L397.50,221.93L397.50,219.86L397.50,217.94L397.50,216.16L397.50,214.49L397.50,212.91L397.50,211.41L397.50,209.97L397.50,208.60L397.50,207.29L397.50,206.02L397.50,204.79L397.50,203.61L397.50,202.46" fill="none" stroke="url(#trace)" stroke-width="3.1" stroke-linecap="round" stroke-linejoin="round"/><path d="M72 573H1128" stroke="#b6e5ed" stroke-opacity=".2"/><circle cx="82" cy="617" r="4" fill="#ffd27d"/><text x="99" y="622" class="eyebrow">DYNAMUSIUM · COSMOS GRAVITY</text><text x="72" y="662" class="title">N-Body System</text><text x="1126" y="621" text-anchor="end" class="note">MODEL-DERIVED STUDY · 1687</text><text x="1126" y="656" text-anchor="end" class="subtitle">Gravity writing with several hands</text><style>.eyebrow{font:600 13px Inter,Arial,sans-serif;letter-spacing:2.2px;fill:#bdd6df}.title{font:500 28px 'Space Grotesk',Inter,Arial,sans-serif;fill:#eff9fb}.subtitle{font:400 13px Inter,Arial,sans-serif;fill:#a4bdc7}.note{font:500 10px 'JetBrains Mono',monospace;letter-spacing:1px;fill:#89a8b5}.metric{font:500 17px 'JetBrains Mono',monospace;fill:#dff4f8}</style></svg>